<mxfile host="app.diagrams.net" modified="2024-06-07T07:42:29.760Z" agent="Mozilla/5.0 (X11; Linux x86_64) AppleWebKit/537.36 (KHTML, like Gecko) Chrome/125.0.0.0 Safari/537.36" etag="iUMMIC78HzVZj7eahkzC" version="24.5.1" type="github">
  <diagram name="Page-1" id="SHBdU1lM0QpDmJfTqm4i">
    <mxGraphModel dx="2373" dy="752" grid="1" gridSize="10" guides="1" tooltips="1" connect="1" arrows="1" fold="1" page="1" pageScale="1" pageWidth="827" pageHeight="1169" math="0" shadow="0">
      <root>
        <mxCell id="0" />
        <mxCell id="1" parent="0" />
        <mxCell id="TIWIcKehhRcWkXShP84--67" value="" style="rounded=1;whiteSpace=wrap;html=1;" vertex="1" parent="1">
          <mxGeometry x="330" y="10" width="740" height="640" as="geometry" />
        </mxCell>
        <mxCell id="TIWIcKehhRcWkXShP84--1" value="" style="rounded=1;whiteSpace=wrap;html=1;arcSize=16;" vertex="1" parent="1">
          <mxGeometry x="570" y="50" width="470" height="270" as="geometry" />
        </mxCell>
        <mxCell id="TIWIcKehhRcWkXShP84--2" value="" style="sketch=0;pointerEvents=1;shadow=0;dashed=0;html=1;strokeColor=none;fillColor=#005F4B;labelPosition=center;verticalLabelPosition=bottom;verticalAlign=top;align=center;outlineConnect=0;shape=mxgraph.veeam2.laptop;" vertex="1" parent="1">
          <mxGeometry x="-10" y="241" width="200" height="110" as="geometry" />
        </mxCell>
        <UserObject label="&lt;span style=&quot;color: rgb(0, 0, 0); font-family: Helvetica; font-size: 12px; font-style: normal; font-variant-ligatures: normal; font-variant-caps: normal; font-weight: 400; letter-spacing: normal; orphans: 2; text-align: center; text-indent: 0px; text-transform: none; widows: 2; word-spacing: 0px; -webkit-text-stroke-width: 0px; white-space: nowrap; background-color: rgb(251, 251, 251); text-decoration-thickness: initial; text-decoration-style: initial; text-decoration-color: initial; display: inline !important; float: none;&quot;&gt;www.foobar.com&lt;/span&gt;" link="&lt;span style=&quot;color: rgb(0, 0, 0); font-family: Helvetica; font-size: 12px; font-style: normal; font-variant-ligatures: normal; font-variant-caps: normal; font-weight: 400; letter-spacing: normal; orphans: 2; text-align: center; text-indent: 0px; text-transform: none; widows: 2; word-spacing: 0px; -webkit-text-stroke-width: 0px; white-space: nowrap; background-color: rgb(251, 251, 251); text-decoration-thickness: initial; text-decoration-style: initial; text-decoration-color: initial; display: inline !important; float: none;&quot;&gt;www.foobar.com&lt;/span&gt;" id="TIWIcKehhRcWkXShP84--3">
          <mxCell style="sketch=0;pointerEvents=1;shadow=0;dashed=0;html=1;strokeColor=none;fillColor=#434445;aspect=fixed;labelPosition=center;verticalLabelPosition=bottom;verticalAlign=top;align=center;outlineConnect=0;shape=mxgraph.vvd.web_browser;" vertex="1" parent="1">
            <mxGeometry x="35" y="251" width="110" height="78.1" as="geometry" />
          </mxCell>
        </UserObject>
        <mxCell id="TIWIcKehhRcWkXShP84--4" value="" style="ellipse;shape=cloud;whiteSpace=wrap;html=1;verticalAlign=top;fillColor=#005F4B;strokeColor=none;sketch=0;pointerEvents=1;shadow=0;dashed=0;" vertex="1" parent="1">
          <mxGeometry x="30" y="446" width="120" height="80" as="geometry" />
        </mxCell>
        <mxCell id="TIWIcKehhRcWkXShP84--5" value="" style="endArrow=classic;startArrow=classic;html=1;rounded=0;exitX=0.5;exitY=0.063;exitDx=0;exitDy=0;exitPerimeter=0;" edge="1" parent="1" source="TIWIcKehhRcWkXShP84--4" target="TIWIcKehhRcWkXShP84--2">
          <mxGeometry width="50" height="50" relative="1" as="geometry">
            <mxPoint x="60" y="441" as="sourcePoint" />
            <mxPoint x="110" y="391" as="targetPoint" />
          </mxGeometry>
        </mxCell>
        <mxCell id="TIWIcKehhRcWkXShP84--6" value="DNS" style="text;html=1;align=center;verticalAlign=middle;whiteSpace=wrap;rounded=0;" vertex="1" parent="1">
          <mxGeometry x="60" y="471" width="60" height="30" as="geometry" />
        </mxCell>
        <mxCell id="TIWIcKehhRcWkXShP84--7" value="&lt;h1 style=&quot;margin-top: 0px;&quot;&gt;&lt;font style=&quot;font-size: 18px;&quot;&gt;2-secured_and_monitored_&lt;/font&gt;&lt;/h1&gt;&lt;h1 style=&quot;margin-top: 0px;&quot;&gt;&lt;font style=&quot;font-size: 18px;&quot;&gt;web_infrastructure&lt;/font&gt;&lt;/h1&gt;" style="text;html=1;whiteSpace=wrap;overflow=hidden;rounded=0;" vertex="1" parent="1">
          <mxGeometry y="40" width="240" height="90" as="geometry" />
        </mxCell>
        <mxCell id="TIWIcKehhRcWkXShP84--8" value="&lt;b&gt;&amp;nbsp;Browser sends request&lt;/b&gt;&lt;div&gt;&lt;b&gt;to server with IP 8.8.8.8&amp;nbsp;&lt;/b&gt;&lt;/div&gt;&lt;div&gt;&lt;b&gt;by using HTTPS e.g&lt;/b&gt;&lt;/div&gt;&lt;div&gt;&lt;b&gt;InstantSSL&lt;/b&gt;&lt;/div&gt;" style="text;html=1;align=center;verticalAlign=middle;resizable=0;points=[];autosize=1;strokeColor=none;fillColor=none;" vertex="1" parent="1">
          <mxGeometry x="171.5" y="204" width="160" height="70" as="geometry" />
        </mxCell>
        <mxCell id="TIWIcKehhRcWkXShP84--9" value="&lt;div&gt;&lt;b&gt;&lt;br&gt;&lt;/b&gt;&lt;/div&gt;&lt;b&gt;&amp;nbsp;Browser receives&amp;nbsp;&lt;/b&gt;&lt;div&gt;&lt;b&gt;response&lt;/b&gt;&lt;div&gt;&lt;b&gt;(mostly a web page)&lt;br&gt;&lt;/b&gt;&lt;div&gt;&lt;div&gt;&lt;b&gt;from server with IP 8.8.8.8&amp;nbsp;&lt;/b&gt;&lt;/div&gt;&lt;div&gt;&lt;b&gt;by using HTTPS&lt;/b&gt;&lt;/div&gt;&lt;/div&gt;&lt;/div&gt;&lt;div&gt;&lt;b&gt;and displays it.&lt;/b&gt;&lt;/div&gt;&lt;/div&gt;" style="text;html=1;align=center;verticalAlign=middle;resizable=0;points=[];autosize=1;strokeColor=none;fillColor=none;" vertex="1" parent="1">
          <mxGeometry x="161.5" y="308.5" width="170" height="110" as="geometry" />
        </mxCell>
        <mxCell id="TIWIcKehhRcWkXShP84--10" value="" style="sketch=0;aspect=fixed;pointerEvents=1;shadow=0;dashed=0;html=1;strokeColor=none;labelPosition=center;verticalLabelPosition=bottom;verticalAlign=top;align=center;fillColor=#00188D;shape=mxgraph.mscae.enterprise.web_server" vertex="1" parent="1">
          <mxGeometry x="640" y="160" width="68.4" height="90" as="geometry" />
        </mxCell>
        <mxCell id="TIWIcKehhRcWkXShP84--11" value="" style="sketch=0;aspect=fixed;pointerEvents=1;shadow=0;dashed=0;html=1;strokeColor=none;labelPosition=center;verticalLabelPosition=bottom;verticalAlign=top;align=center;fillColor=#00188D;shape=mxgraph.mscae.enterprise.application_server2" vertex="1" parent="1">
          <mxGeometry x="772.55" y="160" width="77.4" height="90" as="geometry" />
        </mxCell>
        <mxCell id="TIWIcKehhRcWkXShP84--12" value="" style="image;aspect=fixed;html=1;points=[];align=center;fontSize=12;image=img/lib/azure2/databases/Azure_Database_MySQL_Server.svg;" vertex="1" parent="1">
          <mxGeometry x="923.75" y="158" width="70.5" height="94" as="geometry" />
        </mxCell>
        <mxCell id="TIWIcKehhRcWkXShP84--13" value="&lt;b&gt;Nginx&lt;/b&gt;&lt;div&gt;&lt;b&gt;web server&lt;/b&gt; - stores and delivers web pages&amp;nbsp;&lt;/div&gt;" style="text;html=1;align=center;verticalAlign=middle;whiteSpace=wrap;rounded=0;" vertex="1" parent="1">
          <mxGeometry x="590" y="120" width="140" height="30" as="geometry" />
        </mxCell>
        <mxCell id="TIWIcKehhRcWkXShP84--14" value="&lt;b&gt;Application&lt;/b&gt;&lt;div&gt;&lt;b&gt;server - &lt;/b&gt;provides business logic and dynamic content&lt;/div&gt;" style="text;html=1;align=center;verticalAlign=middle;whiteSpace=wrap;rounded=0;" vertex="1" parent="1">
          <mxGeometry x="731.25" y="120" width="160" height="30" as="geometry" />
        </mxCell>
        <mxCell id="TIWIcKehhRcWkXShP84--15" value="&lt;b&gt;Database&lt;/b&gt;&lt;div&gt;&lt;b&gt;&amp;nbsp;server (MySQL)&lt;/b&gt;&lt;/div&gt;" style="text;html=1;align=center;verticalAlign=middle;whiteSpace=wrap;rounded=0;" vertex="1" parent="1">
          <mxGeometry x="911.38" y="120" width="95.25" height="30" as="geometry" />
        </mxCell>
        <mxCell id="TIWIcKehhRcWkXShP84--16" value="Static files e.g&lt;div&gt;HTML, CSS files&lt;/div&gt;" style="rounded=1;whiteSpace=wrap;html=1;" vertex="1" parent="1">
          <mxGeometry x="600" y="252" width="120" height="50" as="geometry" />
        </mxCell>
        <mxCell id="TIWIcKehhRcWkXShP84--17" value="code base with business logic e.t.c. e.g Python files" style="rounded=1;whiteSpace=wrap;html=1;" vertex="1" parent="1">
          <mxGeometry x="745" y="252" width="112.5" height="50" as="geometry" />
        </mxCell>
        <mxCell id="TIWIcKehhRcWkXShP84--18" value="" style="endArrow=classic;startArrow=classic;html=1;rounded=0;" edge="1" parent="1">
          <mxGeometry width="50" height="50" relative="1" as="geometry">
            <mxPoint x="720" y="210" as="sourcePoint" />
            <mxPoint x="760" y="210" as="targetPoint" />
          </mxGeometry>
        </mxCell>
        <mxCell id="TIWIcKehhRcWkXShP84--19" value="" style="endArrow=classic;startArrow=classic;html=1;rounded=0;" edge="1" parent="1">
          <mxGeometry width="50" height="50" relative="1" as="geometry">
            <mxPoint x="857.5" y="210" as="sourcePoint" />
            <mxPoint x="897.5" y="210" as="targetPoint" />
          </mxGeometry>
        </mxCell>
        <mxCell id="TIWIcKehhRcWkXShP84--20" value="&lt;h1 style=&quot;margin-top: 0px;&quot;&gt;&lt;font size=&quot;3&quot; style=&quot;&quot;&gt;&lt;u style=&quot;&quot;&gt;Server Node-0&lt;/u&gt;&amp;nbsp;(Active)&lt;/font&gt;&lt;/h1&gt;" style="text;html=1;whiteSpace=wrap;overflow=hidden;rounded=0;" vertex="1" parent="1">
          <mxGeometry x="709.38" y="58" width="183.75" height="40" as="geometry" />
        </mxCell>
        <mxCell id="TIWIcKehhRcWkXShP84--21" value="&lt;b&gt;Master&lt;/b&gt;" style="text;html=1;align=center;verticalAlign=middle;whiteSpace=wrap;rounded=0;" vertex="1" parent="1">
          <mxGeometry x="883.75" y="270" width="160" height="30" as="geometry" />
        </mxCell>
        <mxCell id="TIWIcKehhRcWkXShP84--22" value="&lt;h1 style=&quot;margin-top: 0px;&quot;&gt;&lt;font style=&quot;font-size: 18px;&quot;&gt;&lt;u&gt;Issues with the three server web infrastructure&amp;nbsp;&lt;/u&gt;&lt;/font&gt;&lt;/h1&gt;&lt;p&gt;1. SPOF (Single Point of Failure) - There&#39;s SPOFs at the load balancer and the master SQL server&lt;/p&gt;&lt;p&gt;2. Having a master-slave database architecture introduces SPOF which can occur when the master server fails.&lt;/p&gt;&lt;p&gt;3.&amp;nbsp;&lt;span style=&quot;background-color: initial;&quot;&gt;The server nodes have all components at one area and this increases broader attack surface. Horizontal scaling is also an issue since the node components are different&lt;/span&gt;&lt;/p&gt;&lt;p&gt;&lt;span style=&quot;background-color: initial;&quot;&gt;4. Terminating SSL at the load balancer has security concerns since the traffic between the servers and balancer is unencrypted. It also introduces perfomance bottlenecks&amp;nbsp;&lt;/span&gt;&lt;/p&gt;" style="text;html=1;whiteSpace=wrap;overflow=hidden;rounded=0;" vertex="1" parent="1">
          <mxGeometry x="1080" y="430" width="460" height="238" as="geometry" />
        </mxCell>
        <mxCell id="TIWIcKehhRcWkXShP84--23" value="" style="rounded=1;whiteSpace=wrap;html=1;arcSize=16;" vertex="1" parent="1">
          <mxGeometry x="570" y="360" width="470" height="270" as="geometry" />
        </mxCell>
        <mxCell id="TIWIcKehhRcWkXShP84--24" value="" style="sketch=0;aspect=fixed;pointerEvents=1;shadow=0;dashed=0;html=1;strokeColor=none;labelPosition=center;verticalLabelPosition=bottom;verticalAlign=top;align=center;fillColor=#00188D;shape=mxgraph.mscae.enterprise.web_server" vertex="1" parent="1">
          <mxGeometry x="640" y="470" width="68.4" height="90" as="geometry" />
        </mxCell>
        <mxCell id="TIWIcKehhRcWkXShP84--25" value="" style="sketch=0;aspect=fixed;pointerEvents=1;shadow=0;dashed=0;html=1;strokeColor=none;labelPosition=center;verticalLabelPosition=bottom;verticalAlign=top;align=center;fillColor=#00188D;shape=mxgraph.mscae.enterprise.application_server2" vertex="1" parent="1">
          <mxGeometry x="772.55" y="470" width="77.4" height="90" as="geometry" />
        </mxCell>
        <mxCell id="TIWIcKehhRcWkXShP84--26" value="" style="image;aspect=fixed;html=1;points=[];align=center;fontSize=12;image=img/lib/azure2/databases/Azure_Database_MySQL_Server.svg;" vertex="1" parent="1">
          <mxGeometry x="923.75" y="468" width="70.5" height="94" as="geometry" />
        </mxCell>
        <mxCell id="TIWIcKehhRcWkXShP84--27" value="&lt;b&gt;Nginx&lt;/b&gt;&lt;div&gt;&lt;b&gt;web server&lt;/b&gt;&lt;span style=&quot;color: rgba(0, 0, 0, 0); font-family: monospace; font-size: 0px; text-align: start; text-wrap: nowrap;&quot;&gt;3CmxGraphModel%3E%3Croot%3E%3CmxCell%20id%3D%220%22%2F%3E%3CmxCell%20id%3D%221%22%20parent%3D%220%22%2F%3E%3CmxCell%20id%3D%222%22%20value%3D%22%22%20style%3D%22endArrow%3Dclassic%3Bhtml%3D1%3Brounded%3D0%3B%22%20edge%3D%221%22%20parent%3D%221%22%3E%3CmxGeometry%20width%3D%2250%22%20height%3D%2250%22%20relative%3D%221%22%20as%3D%22geometry%22%3E%3CmxPoint%20x%3D%22260%22%20y%3D%22283%22%20as%3D%22sourcePoint%22%2F%3E%3CmxPoint%20x%3D%22330%22%20y%3D%22283%22%20as%3D%22targetPoint%22%2F%3E%3C%2FmxGeometry%3E%3C%2FmxCell%3E%3CmxCell%20id%3D%223%22%20value%3D%22%22%20style%3D%22endArrow%3Dclassic%3Bhtml%3D1%3Brounded%3D0%3BentryX%3D0%3BentryY%3D0.25%3BentryDx%3D0%3BentryDy%3D0%3B%22%20edge%3D%221%22%20parent%3D%221%22%3E%3CmxGeometry%20width%3D%2250%22%20height%3D%2250%22%20relative%3D%221%22%20as%3D%22geometry%22%3E%3CmxPoint%20x%3D%22330%22%20y%3D%22320%22%20as%3D%22sourcePoint%22%2F%3E%3CmxPoint%20x%3D%22260%22%20y%3D%22320%22%20as%3D%22targetPoint%22%2F%3E%3C%2FmxGeometry%3E%3C%2FmxCell%3E%3C%2Froot%3E%3C&lt;/span&gt;&lt;/div&gt;" style="text;html=1;align=center;verticalAlign=middle;whiteSpace=wrap;rounded=0;" vertex="1" parent="1">
          <mxGeometry x="590" y="430" width="140" height="30" as="geometry" />
        </mxCell>
        <mxCell id="TIWIcKehhRcWkXShP84--28" value="&lt;b&gt;Application&lt;/b&gt;&lt;div&gt;&lt;b&gt;server&amp;nbsp;&lt;/b&gt;&lt;/div&gt;" style="text;html=1;align=center;verticalAlign=middle;whiteSpace=wrap;rounded=0;" vertex="1" parent="1">
          <mxGeometry x="731.25" y="430" width="160" height="30" as="geometry" />
        </mxCell>
        <mxCell id="TIWIcKehhRcWkXShP84--29" value="&lt;b&gt;Replica Database&lt;/b&gt;&lt;div&gt;&lt;b&gt;&amp;nbsp;server (MySQL)&lt;/b&gt;&lt;/div&gt;" style="text;html=1;align=center;verticalAlign=middle;whiteSpace=wrap;rounded=0;" vertex="1" parent="1">
          <mxGeometry x="911.3800000000001" y="430" width="95.25" height="30" as="geometry" />
        </mxCell>
        <mxCell id="TIWIcKehhRcWkXShP84--30" value="Static files e.g&lt;div&gt;HTML, CSS files&lt;/div&gt;" style="rounded=1;whiteSpace=wrap;html=1;" vertex="1" parent="1">
          <mxGeometry x="600" y="562" width="120" height="50" as="geometry" />
        </mxCell>
        <mxCell id="TIWIcKehhRcWkXShP84--31" value="code base with business logic e.t.c. e.g Python files" style="rounded=1;whiteSpace=wrap;html=1;" vertex="1" parent="1">
          <mxGeometry x="745" y="562" width="112.5" height="50" as="geometry" />
        </mxCell>
        <mxCell id="TIWIcKehhRcWkXShP84--32" value="" style="endArrow=classic;startArrow=classic;html=1;rounded=0;" edge="1" parent="1">
          <mxGeometry width="50" height="50" relative="1" as="geometry">
            <mxPoint x="720" y="520" as="sourcePoint" />
            <mxPoint x="760" y="520" as="targetPoint" />
          </mxGeometry>
        </mxCell>
        <mxCell id="TIWIcKehhRcWkXShP84--33" value="" style="endArrow=classic;startArrow=classic;html=1;rounded=0;" edge="1" parent="1">
          <mxGeometry width="50" height="50" relative="1" as="geometry">
            <mxPoint x="857.5" y="520" as="sourcePoint" />
            <mxPoint x="897.5" y="520" as="targetPoint" />
          </mxGeometry>
        </mxCell>
        <mxCell id="TIWIcKehhRcWkXShP84--34" value="&lt;h1 style=&quot;margin-top: 0px;&quot;&gt;&lt;font size=&quot;3&quot;&gt;&lt;u&gt;Server Node-1&lt;/u&gt;&amp;nbsp;(Active)&lt;/font&gt;&lt;/h1&gt;" style="text;html=1;whiteSpace=wrap;overflow=hidden;rounded=0;" vertex="1" parent="1">
          <mxGeometry x="714.37" y="375" width="173.75" height="40" as="geometry" />
        </mxCell>
        <mxCell id="TIWIcKehhRcWkXShP84--35" value="" style="rounded=1;whiteSpace=wrap;html=1;" vertex="1" parent="1">
          <mxGeometry x="340" y="158" width="90" height="392" as="geometry" />
        </mxCell>
        <mxCell id="TIWIcKehhRcWkXShP84--36" value="" style="image;aspect=fixed;perimeter=ellipsePerimeter;html=1;align=center;shadow=0;dashed=0;fontColor=#4277BB;labelBackgroundColor=default;fontSize=12;spacingTop=3;image=img/lib/ibm/infrastructure/load_balancing_routing.svg;" vertex="1" parent="1">
          <mxGeometry x="361.5" y="161.5" width="47" height="47" as="geometry" />
        </mxCell>
        <mxCell id="TIWIcKehhRcWkXShP84--37" value="&lt;div&gt;&lt;b&gt;&lt;font style=&quot;font-size: 14px;&quot;&gt;HAproxy&lt;/font&gt;&lt;/b&gt;&lt;/div&gt;&lt;b&gt;&lt;font style=&quot;font-size: 14px;&quot;&gt;Load-balancer&lt;/font&gt;&lt;/b&gt;" style="text;html=1;align=center;verticalAlign=middle;resizable=0;points=[];autosize=1;strokeColor=none;fillColor=none;" vertex="1" parent="1">
          <mxGeometry x="340" y="108" width="120" height="50" as="geometry" />
        </mxCell>
        <mxCell id="TIWIcKehhRcWkXShP84--38" value="" style="endArrow=classic;html=1;rounded=0;" edge="1" parent="1">
          <mxGeometry width="50" height="50" relative="1" as="geometry">
            <mxPoint x="220" y="278.5" as="sourcePoint" />
            <mxPoint x="290" y="278.5" as="targetPoint" />
          </mxGeometry>
        </mxCell>
        <mxCell id="TIWIcKehhRcWkXShP84--39" value="" style="endArrow=classic;html=1;rounded=0;entryX=0;entryY=0.25;entryDx=0;entryDy=0;" edge="1" parent="1">
          <mxGeometry width="50" height="50" relative="1" as="geometry">
            <mxPoint x="290" y="315.5" as="sourcePoint" />
            <mxPoint x="220" y="315.5" as="targetPoint" />
          </mxGeometry>
        </mxCell>
        <mxCell id="TIWIcKehhRcWkXShP84--40" value="&lt;b&gt;Slave&lt;/b&gt;" style="text;html=1;align=center;verticalAlign=middle;whiteSpace=wrap;rounded=0;" vertex="1" parent="1">
          <mxGeometry x="879" y="570" width="160" height="30" as="geometry" />
        </mxCell>
        <mxCell id="TIWIcKehhRcWkXShP84--41" value="" style="html=1;labelBackgroundColor=#ffffff;startArrow=classic;startFill=1;startSize=6;endArrow=classic;endFill=1;endSize=6;jettySize=auto;orthogonalLoop=1;strokeWidth=1;dashed=1;fontSize=14;rounded=0;edgeStyle=orthogonalEdgeStyle;curved=1;entryX=0.987;entryY=0.447;entryDx=0;entryDy=0;entryPerimeter=0;exitX=0.987;exitY=0.446;exitDx=0;exitDy=0;exitPerimeter=0;" edge="1" parent="1" source="TIWIcKehhRcWkXShP84--26" target="TIWIcKehhRcWkXShP84--12">
          <mxGeometry width="60" height="60" relative="1" as="geometry">
            <mxPoint x="1090" y="505.5" as="sourcePoint" />
            <mxPoint x="1150" y="445.5" as="targetPoint" />
            <Array as="points">
              <mxPoint x="1060" y="510" />
              <mxPoint x="1060" y="200" />
            </Array>
          </mxGeometry>
        </mxCell>
        <mxCell id="TIWIcKehhRcWkXShP84--42" value="" style="endArrow=classic;startArrow=classic;html=1;rounded=0;edgeStyle=orthogonalEdgeStyle;curved=1;exitX=1;exitY=0.5;exitDx=0;exitDy=0;entryX=-0.158;entryY=0.46;entryDx=0;entryDy=0;entryPerimeter=0;" edge="1" parent="1" source="TIWIcKehhRcWkXShP84--35" target="TIWIcKehhRcWkXShP84--59">
          <mxGeometry width="50" height="50" relative="1" as="geometry">
            <mxPoint x="430.00000000000034" y="359.94" as="sourcePoint" />
            <mxPoint x="560" y="180" as="targetPoint" />
          </mxGeometry>
        </mxCell>
        <mxCell id="TIWIcKehhRcWkXShP84--43" value="" style="endArrow=classic;startArrow=classic;html=1;rounded=0;edgeStyle=orthogonalEdgeStyle;curved=1;entryX=0;entryY=0.5;entryDx=0;entryDy=0;exitX=1;exitY=0.5;exitDx=0;exitDy=0;" edge="1" parent="1" source="TIWIcKehhRcWkXShP84--35" target="TIWIcKehhRcWkXShP84--23">
          <mxGeometry width="50" height="50" relative="1" as="geometry">
            <mxPoint x="439" y="342" as="sourcePoint" />
            <mxPoint x="580" y="210" as="targetPoint" />
          </mxGeometry>
        </mxCell>
        <mxCell id="TIWIcKehhRcWkXShP84--45" value="&lt;h1 style=&quot;margin-top: 0px;&quot;&gt;&lt;font style=&quot;font-size: 18px;&quot;&gt;&lt;u&gt;About the monitoring design&lt;/u&gt;&lt;/font&gt;&lt;/h1&gt;&lt;p&gt;1. The whole server side is monitored and an alert is brought up if anything unusual is seen&lt;/p&gt;&lt;p&gt;2. The design ensures site reliability.&lt;/p&gt;&lt;p&gt;3.&amp;nbsp; Muliple monitoring tools are used for obseving multiple activities such as QPS, overloading, hardware availability e.t.c&lt;/p&gt;" style="text;html=1;whiteSpace=wrap;overflow=hidden;rounded=0;" vertex="1" parent="1">
          <mxGeometry x="1080" y="241" width="460" height="156" as="geometry" />
        </mxCell>
        <mxCell id="TIWIcKehhRcWkXShP84--46" value="DNS Lookup&lt;div&gt;mechanism&lt;/div&gt;" style="text;html=1;align=center;verticalAlign=middle;resizable=0;points=[];autosize=1;strokeColor=none;fillColor=none;" vertex="1" parent="1">
          <mxGeometry x="-5" y="378.5" width="90" height="40" as="geometry" />
        </mxCell>
        <mxCell id="TIWIcKehhRcWkXShP84--51" value="" style="endArrow=none;html=1;rounded=0;exitX=0.005;exitY=0.155;exitDx=0;exitDy=0;exitPerimeter=0;" edge="1" parent="1" source="TIWIcKehhRcWkXShP84--35">
          <mxGeometry width="50" height="50" relative="1" as="geometry">
            <mxPoint x="373.5" y="270" as="sourcePoint" />
            <mxPoint x="430" y="220" as="targetPoint" />
          </mxGeometry>
        </mxCell>
        <mxCell id="TIWIcKehhRcWkXShP84--57" value="" style="rounded=1;whiteSpace=wrap;html=1;strokeWidth=2;fillWeight=4;hachureGap=8;hachureAngle=45;fillColor=#E29A1B;sketch=1;" vertex="1" parent="1">
          <mxGeometry x="340" y="220" width="20" height="330" as="geometry" />
        </mxCell>
        <mxCell id="TIWIcKehhRcWkXShP84--58" value="" style="rounded=1;whiteSpace=wrap;html=1;strokeWidth=2;fillWeight=4;hachureGap=8;hachureAngle=45;fillColor=#1ba1e2;sketch=1;" vertex="1" parent="1">
          <mxGeometry x="408.5" y="220" width="20" height="330" as="geometry" />
        </mxCell>
        <mxCell id="TIWIcKehhRcWkXShP84--59" value="" style="rounded=1;whiteSpace=wrap;html=1;strokeWidth=2;fillWeight=4;hachureGap=8;hachureAngle=45;fillColor=#E29A1B;sketch=1;" vertex="1" parent="1">
          <mxGeometry x="570" y="90" width="20" height="200" as="geometry" />
        </mxCell>
        <mxCell id="TIWIcKehhRcWkXShP84--62" value="" style="rounded=1;whiteSpace=wrap;html=1;strokeWidth=2;fillWeight=4;hachureGap=8;hachureAngle=45;fillColor=#E29A1B;sketch=1;" vertex="1" parent="1">
          <mxGeometry x="570" y="400" width="20" height="200" as="geometry" />
        </mxCell>
        <mxCell id="TIWIcKehhRcWkXShP84--63" value="&lt;b&gt;&lt;font color=&quot;#ffffff&quot; style=&quot;font-size: 18px; background-color: rgb(0, 0, 0);&quot;&gt;Firewall&lt;/font&gt;&lt;/b&gt;" style="text;html=1;align=center;verticalAlign=middle;whiteSpace=wrap;rounded=0;rotation=270;" vertex="1" parent="1">
          <mxGeometry x="267.5" y="360" width="165" height="30" as="geometry" />
        </mxCell>
        <mxCell id="TIWIcKehhRcWkXShP84--64" value="&lt;b&gt;&lt;font color=&quot;#ffffff&quot; style=&quot;font-size: 18px; background-color: rgb(0, 0, 0);&quot;&gt;Firewall&lt;/font&gt;&lt;/b&gt;" style="text;html=1;align=center;verticalAlign=middle;whiteSpace=wrap;rounded=0;rotation=270;" vertex="1" parent="1">
          <mxGeometry x="497.5" y="170" width="165" height="30" as="geometry" />
        </mxCell>
        <mxCell id="TIWIcKehhRcWkXShP84--65" value="&lt;b&gt;&lt;font color=&quot;#ffffff&quot; style=&quot;font-size: 18px; background-color: rgb(0, 0, 0);&quot;&gt;Firewall&lt;/font&gt;&lt;/b&gt;" style="text;html=1;align=center;verticalAlign=middle;whiteSpace=wrap;rounded=0;rotation=270;" vertex="1" parent="1">
          <mxGeometry x="497.5" y="485" width="165" height="30" as="geometry" />
        </mxCell>
        <mxCell id="TIWIcKehhRcWkXShP84--66" value="&lt;b&gt;&lt;font color=&quot;#ffffff&quot; style=&quot;font-size: 18px; background-color: rgb(0, 0, 0);&quot;&gt;HTTPS / SSL Termination&lt;/font&gt;&lt;/b&gt;&lt;div&gt;&lt;b&gt;&lt;font color=&quot;#ffffff&quot; style=&quot;font-size: 18px; background-color: rgb(0, 0, 0);&quot;&gt;&lt;br&gt;&lt;/font&gt;&lt;/b&gt;&lt;/div&gt;" style="text;html=1;align=center;verticalAlign=middle;whiteSpace=wrap;rounded=0;rotation=270;" vertex="1" parent="1">
          <mxGeometry x="300" y="370" width="255.5" height="30" as="geometry" />
        </mxCell>
        <mxCell id="TIWIcKehhRcWkXShP84--80" value="&lt;b&gt;&lt;font color=&quot;#ffffff&quot; style=&quot;font-size: 18px; background-color: rgb(0, 0, 0);&quot;&gt;Monitoring&lt;/font&gt;&lt;/b&gt;&lt;div&gt;&lt;b&gt;&lt;font color=&quot;#ffffff&quot; style=&quot;font-size: 18px; background-color: rgb(0, 0, 0);&quot;&gt;tools&lt;/font&gt;&lt;/b&gt;&lt;/div&gt;" style="text;html=1;align=center;verticalAlign=middle;whiteSpace=wrap;rounded=0;rotation=0;" vertex="1" parent="1">
          <mxGeometry x="370" y="40" width="165" height="30" as="geometry" />
        </mxCell>
        <mxCell id="TIWIcKehhRcWkXShP84--81" value="&lt;h1 style=&quot;margin-top: 0px;&quot;&gt;&lt;font style=&quot;font-size: 18px;&quot;&gt;&lt;u&gt;About the https protocol&lt;/u&gt;&lt;/font&gt;&lt;/h1&gt;&lt;p&gt;1. Traffic in this design is by https. This ensures that the communication is encrypted&lt;/p&gt;" style="text;html=1;whiteSpace=wrap;overflow=hidden;rounded=0;" vertex="1" parent="1">
          <mxGeometry x="1080" y="125.5" width="460" height="83" as="geometry" />
        </mxCell>
      </root>
    </mxGraphModel>
  </diagram>
</mxfile>
